HIERARCHY
ROOT Hips
{
	OFFSET 0.00000 0.00000 0.00000
	CHANNELS 6 Xposition Yposition Zposition Zrotation Yrotation Xrotation 
	JOINT LHipJoint
	{
		OFFSET 0 0 0
		CHANNELS 3 Zrotation Yrotation Xrotation
		JOINT LeftHip
		{
			OFFSET 1.56741 -1.82513 0.67319
			CHANNELS 3 Zrotation Yrotation Xrotation
			JOINT LeftKnee
			{
				OFFSET 2.35708 -6.47604 0.00000
				CHANNELS 3 Zrotation Yrotation Xrotation
				JOINT LeftAnkle
				{
					OFFSET 2.70636 -7.43567 0.00000
					CHANNELS 3 Zrotation Yrotation Xrotation
					JOINT LeftToe
					{
						OFFSET 0.20427 -0.56122 2.08535
						CHANNELS 3 Zrotation Yrotation Xrotation
						End Site
						{
							OFFSET 0.00000 -0.00000 1.08535
						}
					}
				}
			}
		}
	}
	JOINT RHipJoint
	{
		OFFSET 0 0 0
		CHANNELS 3 Zrotation Yrotation Xrotation
		JOINT RightHip
		{
			OFFSET -1.51422 -1.82513 0.67319
			CHANNELS 3 Zrotation Yrotation Xrotation
			JOINT RightKnee
			{
				OFFSET -2.48824 -6.83638 0.00000
				CHANNELS 3 Zrotation Yrotation Xrotation
				JOINT RightAnkle
				{
					OFFSET -2.70033 -7.41909 0.00000
					CHANNELS 3 Zrotation Yrotation Xrotation
					JOINT RightToe
					{
						OFFSET -0.19750 -0.54263 2.22151
						CHANNELS 3 Zrotation Yrotation Xrotation
						End Site
						{
							OFFSET -0.00000 -0.00000 1.14915
						}
					}
				}
			}
		}
	}
	JOINT lowerback
	{
		OFFSET 0 0 0
		CHANNELS 3 Zrotation Yrotation Xrotation
		JOINT Chest
		{
			OFFSET -0.01567 2.12874 -0.15842
			CHANNELS 3 Zrotation Yrotation Xrotation
			JOINT Chest2
			{
				OFFSET 0.06098 2.13326 -0.01043
				CHANNELS 3 Zrotation Yrotation Xrotation
				JOINT lowerneck
				{
					OFFSET 0 0 0
					CHANNELS 3 Zrotation Yrotation Xrotation
					JOINT Neck
					{
						OFFSET -0.05040 1.78432 0.13387
						CHANNELS 3 Zrotation Yrotation Xrotation
						JOINT Head
						{
							OFFSET -0.00180 1.76880 -0.33303
							CHANNELS 3 Zrotation Yrotation Xrotation
							End Site
							{
								OFFSET 0.00734 1.81249 -0.12719
							}
						}
					}
				}
				JOINT LeftCollar
				{
					OFFSET 0 0 0
					CHANNELS 3 Zrotation Yrotation Xrotation
					JOINT LeftShoulder
					{
						OFFSET 3.72199 0.94188 -0.54317
CHANNELS 3 Zrotation Xrotation Yrotation
						JOINT LeftElbow
						{
OFFSET 0 -5.146010 0.000000
CHANNELS 3 Zrotation Xrotation Yrotation
							JOINT LeftWrist
							{
OFFSET 0 -3.644520 -0.000000
CHANNELS 3 Zrotation Xrotation Yrotation
								JOINT lhand
								{
									OFFSET 0 0 0
CHANNELS 3 Zrotation Xrotation Yrotation
									JOINT LFingers
									{
OFFSET 0 -0.562280 0.000000
CHANNELS 3 Zrotation Xrotation Yrotation
										End Site
										{
OFFSET 0 -0.453320 0.000000
										}
									}
								}
								JOINT LThumb
								{
OFFSET 0 0.000000 0.000000
CHANNELS 3 Zrotation Xrotation Yrotation
									End Site
									{
OFFSET 0 -0.460250 0.460250
									}
								}
							}
						}
					}
				}
				JOINT RightCollar
				{
					OFFSET 0 0 0
					CHANNELS 3 Zrotation Yrotation Xrotation
					JOINT RightShoulder
					{
						OFFSET -3.30253 1.22679 -0.46941
CHANNELS 3 Zrotation Xrotation Yrotation
						JOINT RightElbow
						{
OFFSET 0 -5.339130 0.000000
CHANNELS 3 Zrotation Xrotation Yrotation
							JOINT RightWrist
							{
OFFSET 0 -3.564780 -0.000000
CHANNELS 3 Zrotation Xrotation Yrotation
								JOINT rhand
								{
									OFFSET 0 0 0
CHANNELS 3 Zrotation Xrotation Yrotation
									JOINT RFingers
									{
OFFSET 0 -0.857470 0.000000
CHANNELS 3 Zrotation Xrotation Yrotation
										End Site
										{
OFFSET 0 -0.691320 0.000000
										}
									}
								}
								JOINT RThumb
								{
OFFSET 0 0.000000 0.000000
CHANNELS 3 Zrotation Xrotation Yrotation
									End Site
									{
OFFSET 0 -0.701870 0.701870
									}
								}
							}
						}
					}
				}
			}
		}
	}
}
MOTION
Frames: 8
Frame Time: 0.008333333333333333
0.094101 17.246122 31.995214 -358.339499 -45.554575 358.807910 0.000000 0.000000 0.000000 -20.437726 -4.321408 -4.420651 8.777210 16.661788 55.315680 -0.613817 -14.652920 10.957951 0.704725 -5.364618 -14.951741 0.000000 0.000000 0.000000 26.212704 5.331703 -21.167820 -4.419875 -12.698701 38.251328 -0.512147 4.412150 -12.735590 -2.645309 -10.097469 29.293098 -1.007319 -1.559423 6.277035 3.340981 -2.100089 1.534337 4.178403 -1.059699 -1.772718 -8.744497 -3.510000 -7.660246 0.249173 -3.811052 23.560255 1.160743 -2.639487 8.819450 0.000000 0.000000 0.000000 -3.140286 2.785737 -22.080647 14.955322 -24.083762 3.207794 18.835458 14.317451 -23.265603 0.000000 0.000000 0.000000 -7.125000 0.000000 0.000000 -10.858272 54.083858 2.446287 0.000000 0.000000 0.000000 -5.373704 0.785031 1.775556 -19.901441 -30.523333 -5.481277 -16.652325 11.538672 -1.853735 0.000000 0.000000 0.000000 7.125000 0.000000 0.000000 7.659966 28.016125 3.190479
-0.585987 17.580235 32.712721 -357.708890 -48.673085 358.245249 0.000000 0.000000 0.000000 -18.404490 -5.368952 -13.685368 9.256925 16.970056 56.974306 0.046765 -3.576955 -4.283159 1.215648 -6.972180 -19.641958 0.000000 0.000000 0.000000 26.814885 8.019498 -11.556749 -2.946153 -10.607336 30.966754 -0.543077 1.259983 -13.543219 -2.421001 -9.690365 27.981794 -2.210755 -0.551588 5.420495 2.403215 -0.831583 1.451249 3.775768 -0.420322 -1.477115 -9.438046 -6.383029 -7.279239 1.062284 -7.846986 20.695096 1.162972 -4.433901 8.040151 0.000000 0.000000 0.000000 0.054956 2.907140 -21.339912 17.288045 -27.235352 4.218655 19.912967 7.531872 -23.790520 0.000000 0.000000 0.000000 -7.125000 0.000000 0.000000 -9.980712 54.823456 2.426692 0.000000 0.000000 0.000000 -4.112711 2.263536 11.629743 -22.404561 -33.430591 -6.807678 -15.034515 10.733890 -3.370512 0.000000 0.000000 0.000000 7.125000 0.000000 0.000000 8.792664 26.468410 3.994685
-1.099571 17.502121 33.416300 -357.699204 -50.580437 357.725194 0.000000 0.000000 0.000000 -15.766682 -7.644519 -20.355577 6.772272 15.135957 48.005659 0.347246 -1.765315 -10.661660 1.319608 -7.274119 -20.530639 0.000000 0.000000 0.000000 26.978392 8.628354 -7.756913 -3.180742 -10.981754 32.218619 -0.836349 1.266126 -16.899982 -1.595611 -7.849148 22.316721 -0.887894 -0.151729 6.397728 1.312708 -0.249558 1.681255 1.872269 -0.129169 -1.843582 -10.273287 -7.500820 -9.212361 2.301702 -9.193455 18.756761 1.510404 -4.940847 7.916982 0.000000 0.000000 0.000000 3.626453 2.334964 -22.576887 20.272824 -30.969577 5.671104 19.881235 5.940978 -23.028461 0.000000 0.000000 0.000000 -7.125000 0.000000 0.000000 -9.696874 54.042076 2.171033 0.000000 0.000000 0.000000 -3.641401 1.822753 19.726475 -25.519244 -36.729902 -8.598552 -9.585912 15.028248 -6.182222 0.000000 0.000000 0.000000 7.125000 0.000000 0.000000 12.624095 23.728860 6.633452
-1.485141 17.203758 33.888871 -366.749846 -50.791971 365.265886 0.000000 0.000000 0.000000 -6.851926 -10.059658 -26.455520 3.307603 11.176373 32.877915 -0.110617 9.500643 -11.406719 0.003550 0.379402 1.042466 0.000000 0.000000 0.000000 33.661632 9.742059 -7.043332 -3.541434 -11.523884 34.067769 -1.063218 -0.185292 -19.564630 -1.435583 -7.575081 21.430855 4.152231 -0.226763 8.459105 2.744925 0.080255 2.172397 0.498340 0.000200 -2.487483 -10.313747 -7.989111 -10.063630 2.563710 -9.660731 15.171821 1.573766 -5.055911 6.933432 0.000000 0.000000 0.000000 4.423666 -2.344927 -19.758541 20.250960 -30.943522 5.659807 20.603074 8.077021 -22.073116 0.000000 0.000000 0.000000 -7.125000 0.000000 0.000000 -8.595583 53.199650 1.743952 0.000000 0.000000 0.000000 -4.416077 -2.177110 22.178979 -26.325666 -37.528367 -9.085286 -12.532487 14.108273 -3.694662 0.000000 0.000000 0.000000 7.125000 0.000000 0.000000 10.652376 26.167855 4.943420
-2.067057 17.228481 34.659974 -367.817359 -51.492976 367.286982 0.000000 0.000000 0.000000 -5.532571 -13.492804 -23.202521 0.478877 4.427701 12.284791 -0.416962 12.388973 -9.862105 0.175683 -2.612790 -7.206893 0.000000 0.000000 0.000000 33.809662 8.875201 -3.380207 -3.037338 -10.755110 31.458483 -1.088946 -0.053998 -19.753778 -0.916217 -6.098782 17.071281 4.018688 0.095162 7.347776 2.935382 0.468374 1.595320 0.731563 0.193398 -2.462011 -9.932583 -8.040506 -10.440331 2.608029 -9.769588 15.476798 1.498213 -5.082761 7.085483 0.000000 0.000000 0.000000 2.618184 -1.542121 -15.888802 20.580976 -31.335924 5.830493 20.960282 6.508599 -23.270435 0.000000 0.000000 0.000000 -7.125000 0.000000 0.000000 -8.688252 54.497627 2.039097 0.000000 0.000000 0.000000 -3.195821 -2.850393 18.091482 -24.774773 -35.972719 -8.157271 -14.453386 15.344225 -0.982391 0.000000 0.000000 0.000000 7.125000 0.000000 0.000000 9.423045 28.909406 3.739617
-2.610624 17.292601 35.586889 -369.283179 -52.663147 369.707347 0.000000 0.000000 0.000000 -4.926538 -15.221798 -23.558141 0.247023 3.189201 8.806733 -0.345533 11.215062 -8.743888 1.020829 -6.427329 -18.029577 0.000000 0.000000 0.000000 33.493740 8.185654 0.821978 -2.482197 -9.805351 28.348701 -1.023874 -0.314833 -19.246078 -0.499079 -4.528162 12.567700 5.781183 0.345273 6.459991 2.759782 0.894610 1.006959 -0.466760 0.385471 -2.537467 -9.984254 -7.954220 -10.721001 2.758398 -9.611113 14.752323 1.573190 -4.981692 6.898125 0.000000 0.000000 0.000000 1.244579 2.237545 -15.342116 21.024911 -31.857279 6.063183 20.475911 6.939293 -20.794513 0.000000 0.000000 0.000000 -7.125000 0.000000 0.000000 -8.273401 51.860043 1.405724 0.000000 0.000000 0.000000 -3.105948 0.056686 19.609782 -25.373001 -36.582487 -8.511306 -13.547395 12.293079 -2.625973 0.000000 0.000000 0.000000 7.125000 0.000000 0.000000 9.974711 27.239514 4.364510
-3.165771 17.145727 36.551670 -369.625691 -55.092416 370.249167 0.000000 0.000000 0.000000 -7.230528 -12.899266 -26.215601 0.973999 6.282892 17.607354 -0.031037 3.310546 -2.418657 1.024786 -6.433464 -18.049555 0.000000 0.000000 0.000000 32.582444 9.258359 6.222533 -2.244920 -9.358526 26.923547 -1.157227 -1.301632 -20.835525 -0.130345 -2.324912 6.404642 6.613845 0.808050 6.791450 2.323180 1.573750 1.170036 -1.441588 0.718345 -2.483743 -9.858958 -7.780358 -11.643775 2.779673 -9.265535 13.930739 1.578041 -4.780367 6.762094 0.000000 0.000000 0.000000 -0.197128 3.112824 -11.267550 19.277683 -29.761738 5.168249 20.367753 6.353449 -21.659168 0.000000 0.000000 0.000000 -7.125000 0.000000 0.000000 -8.682263 52.731240 1.661881 0.000000 0.000000 0.000000 -3.229676 1.316994 21.955907 -24.600840 -35.793043 -8.055385 -13.544651 11.771708 -3.355677 0.000000 0.000000 0.000000 7.125000 0.000000 0.000000 9.918035 26.500547 4.514235
-3.828912 17.149611 37.532591 -364.546000 -52.624664 365.776558 0.000000 0.000000 0.000000 -13.306165 -9.782739 -27.188345 1.554011 7.867733 22.313157 -0.030687 -3.795093 3.711992 1.407273 -7.502837 -21.214298 0.000000 0.000000 0.000000 29.575486 7.650145 8.669437 -2.729503 -10.243548 29.769165 -0.844740 -3.978684 -19.243793 -0.074796 -1.764322 4.854651 4.602167 0.162765 6.406961 1.430712 0.532350 1.356820 -1.150307 0.230668 -2.162551 -10.154197 -8.187297 -10.655493 3.324718 -9.951408 13.391331 1.767032 -5.089211 6.507432 0.000000 0.000000 0.000000 -0.800665 1.133503 -7.262669 15.121285 -24.314779 3.275755 21.096197 10.702393 -22.862988 0.000000 0.000000 0.000000 -7.125000 0.000000 0.000000 -8.389739 54.105331 1.887779 0.000000 0.000000 0.000000 -1.000108 1.016307 14.019800 -19.149364 -29.603499 -5.104550 -14.579860 16.142218 -3.306614 0.000000 0.000000 0.000000 7.125000 0.000000 0.000000 9.139968 26.539715 4.142570
